ISO-10303-21;
HEADER;
FILE_DESCRIPTION(('FreeCAD Model'),'2;1');
FILE_NAME('Open CASCADE Shape Model','2025-05-08T08:12:52',('Author'),(
    ''),'Open CASCADE STEP processor 7.8','FreeCAD','Unknown');
FILE_SCHEMA(('AUTOMOTIVE_DESIGN { 1 0 10303 214 1 1 1 1 }'));
ENDSEC;
DATA;
#1 = APPLICATION_PROTOCOL_DEFINITION('international standard',
  'automotive_design',2000,#2);
#2 = APPLICATION_CONTEXT(
  'core data for automotive mechanical design processes');
#3 = SHAPE_DEFINITION_REPRESENTATION(#4,#10);
#4 = PRODUCT_DEFINITION_SHAPE('','',#5);
#5 = PRODUCT_DEFINITION('design','',#6,#9);
#6 = PRODUCT_DEFINITION_FORMATION('','',#7);
#7 = PRODUCT('geometry','geometry','',(#8));
#8 = PRODUCT_CONTEXT('',#2,'mechanical');
#9 = PRODUCT_DEFINITION_CONTEXT('part definition',#2,'design');
#10 = SHAPE_REPRESENTATION('',(#11,#15),#19);
#11 = AXIS2_PLACEMENT_3D('',#12,#13,#14);
#12 = CARTESIAN_POINT('',(0.,0.,0.));
#13 = DIRECTION('',(0.,0.,1.));
#14 = DIRECTION('',(1.,0.,-0.));
#15 = AXIS2_PLACEMENT_3D('',#16,#17,#18);
#16 = CARTESIAN_POINT('',(0.,0.,0.));
#17 = DIRECTION('',(0.,0.,1.));
#18 = DIRECTION('',(1.,0.,0.));
#19 = ( GEOMETRIC_REPRESENTATION_CONTEXT(3) 
GLOBAL_UNCERTAINTY_ASSIGNED_CONTEXT((#23)) GLOBAL_UNIT_ASSIGNED_CONTEXT(
(#20,#21,#22)) REPRESENTATION_CONTEXT('Context #1',
  '3D Context with UNIT and UNCERTAINTY') );
#20 = ( LENGTH_UNIT() NAMED_UNIT(*) SI_UNIT(.MILLI.,.METRE.) );
#21 = ( NAMED_UNIT(*) PLANE_ANGLE_UNIT() SI_UNIT($,.RADIAN.) );
#22 = ( NAMED_UNIT(*) SI_UNIT($,.STERADIAN.) SOLID_ANGLE_UNIT() );
#23 = UNCERTAINTY_MEASURE_WITH_UNIT(LENGTH_MEASURE(1.E-07),#20,
  'distance_accuracy_value','confusion accuracy');
#24 = PRODUCT_RELATED_PRODUCT_CATEGORY('part',$,(#7));
#25 = SHAPE_DEFINITION_REPRESENTATION(#26,#32);
#26 = PRODUCT_DEFINITION_SHAPE('','',#27);
#27 = PRODUCT_DEFINITION('design','',#28,#31);
#28 = PRODUCT_DEFINITION_FORMATION('','',#29);
#29 = PRODUCT('Universe_0_Container_None','Universe_0_Container_None',''
  ,(#30));
#30 = PRODUCT_CONTEXT('',#2,'mechanical');
#31 = PRODUCT_DEFINITION_CONTEXT('part definition',#2,'design');
#32 = SHAPE_REPRESENTATION('',(#11,#33,#37,#41),#45);
#33 = AXIS2_PLACEMENT_3D('',#34,#35,#36);
#34 = CARTESIAN_POINT('',(0.,0.,0.));
#35 = DIRECTION('',(0.,0.,1.));
#36 = DIRECTION('',(1.,0.,0.));
#37 = AXIS2_PLACEMENT_3D('',#38,#39,#40);
#38 = CARTESIAN_POINT('',(0.,0.,0.));
#39 = DIRECTION('',(0.,0.,1.));
#40 = DIRECTION('',(1.,0.,0.));
#41 = AXIS2_PLACEMENT_3D('',#42,#43,#44);
#42 = CARTESIAN_POINT('',(0.,0.,0.));
#43 = DIRECTION('',(0.,0.,1.));
#44 = DIRECTION('',(1.,0.,0.));
#45 = ( GEOMETRIC_REPRESENTATION_CONTEXT(3) 
GLOBAL_UNCERTAINTY_ASSIGNED_CONTEXT((#49)) GLOBAL_UNIT_ASSIGNED_CONTEXT(
(#46,#47,#48)) REPRESENTATION_CONTEXT('Context #1',
  '3D Context with UNIT and UNCERTAINTY') );
#46 = ( LENGTH_UNIT() NAMED_UNIT(*) SI_UNIT(.MILLI.,.METRE.) );
#47 = ( NAMED_UNIT(*) PLANE_ANGLE_UNIT() SI_UNIT($,.RADIAN.) );
#48 = ( NAMED_UNIT(*) SI_UNIT($,.STERADIAN.) SOLID_ANGLE_UNIT() );
#49 = UNCERTAINTY_MEASURE_WITH_UNIT(LENGTH_MEASURE(1.E-07),#46,
  'distance_accuracy_value','confusion accuracy');
#50 = CONTEXT_DEPENDENT_SHAPE_REPRESENTATION(#51,#53);
#51 = ( REPRESENTATION_RELATIONSHIP('','',#32,#10) 
REPRESENTATION_RELATIONSHIP_WITH_TRANSFORMATION(#52) 
SHAPE_REPRESENTATION_RELATIONSHIP() );
#52 = ITEM_DEFINED_TRANSFORMATION('','',#11,#15);
#53 = PRODUCT_DEFINITION_SHAPE('Placement','Placement of an item',#54);
#54 = NEXT_ASSEMBLY_USAGE_OCCURRENCE('9','Universe_0_Container_None','',
  #5,#27,$);
#55 = PRODUCT_RELATED_PRODUCT_CATEGORY('part',$,(#29));
#56 = SHAPE_DEFINITION_REPRESENTATION(#57,#63);
#57 = PRODUCT_DEFINITION_SHAPE('','',#58);
#58 = PRODUCT_DEFINITION('design','',#59,#62);
#59 = PRODUCT_DEFINITION_FORMATION('','',#60);
#60 = PRODUCT('Material_0_None0','Material_0_None0','',(#61));
#61 = PRODUCT_CONTEXT('',#2,'mechanical');
#62 = PRODUCT_DEFINITION_CONTEXT('part definition',#2,'design');
#63 = SHAPE_REPRESENTATION('',(#11,#64,#68),#72);
#64 = AXIS2_PLACEMENT_3D('',#65,#66,#67);
#65 = CARTESIAN_POINT('',(0.,0.,0.));
#66 = DIRECTION('',(0.,0.,1.));
#67 = DIRECTION('',(1.,0.,0.));
#68 = AXIS2_PLACEMENT_3D('',#69,#70,#71);
#69 = CARTESIAN_POINT('',(0.,0.,0.));
#70 = DIRECTION('',(0.,0.,1.));
#71 = DIRECTION('',(1.,0.,0.));
#72 = ( GEOMETRIC_REPRESENTATION_CONTEXT(3) 
GLOBAL_UNCERTAINTY_ASSIGNED_CONTEXT((#76)) GLOBAL_UNIT_ASSIGNED_CONTEXT(
(#73,#74,#75)) REPRESENTATION_CONTEXT('Context #1',
  '3D Context with UNIT and UNCERTAINTY') );
#73 = ( LENGTH_UNIT() NAMED_UNIT(*) SI_UNIT(.MILLI.,.METRE.) );
#74 = ( NAMED_UNIT(*) PLANE_ANGLE_UNIT() SI_UNIT($,.RADIAN.) );
#75 = ( NAMED_UNIT(*) SI_UNIT($,.STERADIAN.) SOLID_ANGLE_UNIT() );
#76 = UNCERTAINTY_MEASURE_WITH_UNIT(LENGTH_MEASURE(1.E-07),#73,
  'distance_accuracy_value','confusion accuracy');
#77 = CONTEXT_DEPENDENT_SHAPE_REPRESENTATION(#78,#80);
#78 = ( REPRESENTATION_RELATIONSHIP('','',#63,#32) 
REPRESENTATION_RELATIONSHIP_WITH_TRANSFORMATION(#79) 
SHAPE_REPRESENTATION_RELATIONSHIP() );
#79 = ITEM_DEFINED_TRANSFORMATION('','',#11,#33);
#80 = PRODUCT_DEFINITION_SHAPE('Placement','Placement of an item',#81);
#81 = NEXT_ASSEMBLY_USAGE_OCCURRENCE('3','Material_0_None0','',#27,#58,$
  );
#82 = PRODUCT_RELATED_PRODUCT_CATEGORY('part',$,(#60));
#83 = SHAPE_DEFINITION_REPRESENTATION(#84,#90);
#84 = PRODUCT_DEFINITION_SHAPE('','',#85);
#85 = PRODUCT_DEFINITION('design','',#86,#89);
#86 = PRODUCT_DEFINITION_FORMATION('','',#87);
#87 = PRODUCT('Cell_1_0','Cell_1_0','',(#88));
#88 = PRODUCT_CONTEXT('',#2,'mechanical');
#89 = PRODUCT_DEFINITION_CONTEXT('part definition',#2,'design');
#90 = ADVANCED_BREP_SHAPE_REPRESENTATION('',(#11,#91),#220);
#91 = MANIFOLD_SOLID_BREP('',#92);
#92 = CLOSED_SHELL('',(#93,#139,#160,#194,#210));
#93 = ADVANCED_FACE('',(#94),#134,.T.);
#94 = FACE_BOUND('',#95,.T.);
#95 = EDGE_LOOP('',(#96,#107,#116,#117,#124,#133));
#96 = ORIENTED_EDGE('',*,*,#97,.F.);
#97 = EDGE_CURVE('',#98,#100,#102,.T.);
#98 = VERTEX_POINT('',#99);
#99 = CARTESIAN_POINT('',(83.2,-2.037812273781E-14,55.477563032274));
#100 = VERTEX_POINT('',#101);
#101 = CARTESIAN_POINT('',(83.2,-2.037812273781E-14,-55.47756303227));
#102 = CIRCLE('',#103,55.477563032275);
#103 = AXIS2_PLACEMENT_3D('',#104,#105,#106);
#104 = CARTESIAN_POINT('',(83.2,0.,0.));
#105 = DIRECTION('',(1.,0.,0.));
#106 = DIRECTION('',(-0.,0.,1.));
#107 = ORIENTED_EDGE('',*,*,#108,.T.);
#108 = EDGE_CURVE('',#98,#109,#111,.T.);
#109 = VERTEX_POINT('',#110);
#110 = CARTESIAN_POINT('',(6.123233995737E-15,-1.499759782662E-30,100.)
  );
#111 = CIRCLE('',#112,100.);
#112 = AXIS2_PLACEMENT_3D('',#113,#114,#115);
#113 = CARTESIAN_POINT('',(0.,0.,0.));
#114 = DIRECTION('',(-2.449293598295E-16,-1.,0.));
#115 = DIRECTION('',(1.,-2.449293598295E-16,0.));
#116 = ORIENTED_EDGE('',*,*,#108,.F.);
#117 = ORIENTED_EDGE('',*,*,#118,.F.);
#118 = EDGE_CURVE('',#100,#98,#119,.T.);
#119 = CIRCLE('',#120,55.477563032275);
#120 = AXIS2_PLACEMENT_3D('',#121,#122,#123);
#121 = CARTESIAN_POINT('',(83.2,0.,0.));
#122 = DIRECTION('',(1.,0.,0.));
#123 = DIRECTION('',(-0.,0.,1.));
#124 = ORIENTED_EDGE('',*,*,#125,.F.);
#125 = EDGE_CURVE('',#126,#100,#128,.T.);
#126 = VERTEX_POINT('',#127);
#127 = CARTESIAN_POINT('',(6.123233995737E-15,-1.499759782662E-30,-100.)
  );
#128 = CIRCLE('',#129,100.);
#129 = AXIS2_PLACEMENT_3D('',#130,#131,#132);
#130 = CARTESIAN_POINT('',(0.,0.,0.));
#131 = DIRECTION('',(-2.449293598295E-16,-1.,0.));
#132 = DIRECTION('',(1.,-2.449293598295E-16,0.));
#133 = ORIENTED_EDGE('',*,*,#125,.T.);
#134 = SPHERICAL_SURFACE('',#135,100.);
#135 = AXIS2_PLACEMENT_3D('',#136,#137,#138);
#136 = CARTESIAN_POINT('',(0.,0.,0.));
#137 = DIRECTION('',(0.,0.,1.));
#138 = DIRECTION('',(1.,0.,-0.));
#139 = ADVANCED_FACE('',(#140,#151),#155,.F.);
#140 = FACE_BOUND('',#141,.F.);
#141 = EDGE_LOOP('',(#142));
#142 = ORIENTED_EDGE('',*,*,#143,.T.);
#143 = EDGE_CURVE('',#144,#144,#146,.T.);
#144 = VERTEX_POINT('',#145);
#145 = CARTESIAN_POINT('',(83.2,1.359357947054E-14,55.5));
#146 = CIRCLE('',#147,55.5);
#147 = AXIS2_PLACEMENT_3D('',#148,#149,#150);
#148 = CARTESIAN_POINT('',(83.2,0.,0.));
#149 = DIRECTION('',(1.,0.,0.));
#150 = DIRECTION('',(-0.,0.,1.));
#151 = FACE_BOUND('',#152,.F.);
#152 = EDGE_LOOP('',(#153,#154));
#153 = ORIENTED_EDGE('',*,*,#118,.F.);
#154 = ORIENTED_EDGE('',*,*,#97,.F.);
#155 = PLANE('',#156);
#156 = AXIS2_PLACEMENT_3D('',#157,#158,#159);
#157 = CARTESIAN_POINT('',(83.2,0.,0.));
#158 = DIRECTION('',(1.,0.,0.));
#159 = DIRECTION('',(-0.,0.,1.));
#160 = ADVANCED_FACE('',(#161),#189,.T.);
#161 = FACE_BOUND('',#162,.T.);
#162 = EDGE_LOOP('',(#163,#174,#180,#181,#182));
#163 = ORIENTED_EDGE('',*,*,#164,.F.);
#164 = EDGE_CURVE('',#165,#167,#169,.T.);
#165 = VERTEX_POINT('',#166);
#166 = CARTESIAN_POINT('',(191.62463307205,-1.667045961768E-14,
    55.500000000005));
#167 = VERTEX_POINT('',#168);
#168 = CARTESIAN_POINT('',(191.62463307205,-4.69344987059E-14,-55.5));
#169 = CIRCLE('',#170,55.5);
#170 = AXIS2_PLACEMENT_3D('',#171,#172,#173);
#171 = CARTESIAN_POINT('',(191.62463307205,0.,0.));
#172 = DIRECTION('',(1.,0.,0.));
#173 = DIRECTION('',(-0.,0.,1.));
#174 = ORIENTED_EDGE('',*,*,#175,.F.);
#175 = EDGE_CURVE('',#144,#165,#176,.T.);
#176 = LINE('',#177,#178);
#177 = CARTESIAN_POINT('',(43.658,1.359357947054E-14,55.5));
#178 = VECTOR('',#179,1.);
#179 = DIRECTION('',(1.,0.,0.));
#180 = ORIENTED_EDGE('',*,*,#143,.T.);
#181 = ORIENTED_EDGE('',*,*,#175,.T.);
#182 = ORIENTED_EDGE('',*,*,#183,.F.);
#183 = EDGE_CURVE('',#167,#165,#184,.T.);
#184 = CIRCLE('',#185,55.5);
#185 = AXIS2_PLACEMENT_3D('',#186,#187,#188);
#186 = CARTESIAN_POINT('',(191.62463307205,0.,0.));
#187 = DIRECTION('',(1.,0.,0.));
#188 = DIRECTION('',(-0.,0.,1.));
#189 = CYLINDRICAL_SURFACE('',#190,55.5);
#190 = AXIS2_PLACEMENT_3D('',#191,#192,#193);
#191 = CARTESIAN_POINT('',(43.658,0.,0.));
#192 = DIRECTION('',(1.,0.,0.));
#193 = DIRECTION('',(-0.,0.,1.));
#194 = ADVANCED_FACE('',(#195),#205,.T.);
#195 = FACE_BOUND('',#196,.T.);
#196 = EDGE_LOOP('',(#197,#204));
#197 = ORIENTED_EDGE('',*,*,#198,.T.);
#198 = EDGE_CURVE('',#167,#165,#199,.T.);
#199 = CIRCLE('',#200,199.5);
#200 = AXIS2_PLACEMENT_3D('',#201,#202,#203);
#201 = CARTESIAN_POINT('',(0.,0.,0.));
#202 = DIRECTION('',(-2.449293598295E-16,-1.,0.));
#203 = DIRECTION('',(1.,-2.449293598295E-16,0.));
#204 = ORIENTED_EDGE('',*,*,#164,.T.);
#205 = SPHERICAL_SURFACE('',#206,199.5);
#206 = AXIS2_PLACEMENT_3D('',#207,#208,#209);
#207 = CARTESIAN_POINT('',(0.,0.,0.));
#208 = DIRECTION('',(0.,0.,1.));
#209 = DIRECTION('',(1.,0.,-0.));
#210 = ADVANCED_FACE('',(#211),#215,.T.);
#211 = FACE_BOUND('',#212,.T.);
#212 = EDGE_LOOP('',(#213,#214));
#213 = ORIENTED_EDGE('',*,*,#183,.T.);
#214 = ORIENTED_EDGE('',*,*,#198,.F.);
#215 = SPHERICAL_SURFACE('',#216,199.5);
#216 = AXIS2_PLACEMENT_3D('',#217,#218,#219);
#217 = CARTESIAN_POINT('',(0.,0.,0.));
#218 = DIRECTION('',(0.,0.,1.));
#219 = DIRECTION('',(1.,0.,-0.));
#220 = ( GEOMETRIC_REPRESENTATION_CONTEXT(3) 
GLOBAL_UNCERTAINTY_ASSIGNED_CONTEXT((#224)) GLOBAL_UNIT_ASSIGNED_CONTEXT
((#221,#222,#223)) REPRESENTATION_CONTEXT('Context #1',
  '3D Context with UNIT and UNCERTAINTY') );
#221 = ( LENGTH_UNIT() NAMED_UNIT(*) SI_UNIT(.MILLI.,.METRE.) );
#222 = ( NAMED_UNIT(*) PLANE_ANGLE_UNIT() SI_UNIT($,.RADIAN.) );
#223 = ( NAMED_UNIT(*) SI_UNIT($,.STERADIAN.) SOLID_ANGLE_UNIT() );
#224 = UNCERTAINTY_MEASURE_WITH_UNIT(LENGTH_MEASURE(1.E-07),#221,
  'distance_accuracy_value','confusion accuracy');
#225 = CONTEXT_DEPENDENT_SHAPE_REPRESENTATION(#226,#228);
#226 = ( REPRESENTATION_RELATIONSHIP('','',#90,#63) 
REPRESENTATION_RELATIONSHIP_WITH_TRANSFORMATION(#227) 
SHAPE_REPRESENTATION_RELATIONSHIP() );
#227 = ITEM_DEFINED_TRANSFORMATION('','',#11,#64);
#228 = PRODUCT_DEFINITION_SHAPE('Placement','Placement of an item',#229
  );
#229 = NEXT_ASSEMBLY_USAGE_OCCURRENCE('1','Cell_1_0','',#58,#85,$);
#230 = PRODUCT_RELATED_PRODUCT_CATEGORY('part',$,(#87));
#231 = SHAPE_DEFINITION_REPRESENTATION(#232,#238);
#232 = PRODUCT_DEFINITION_SHAPE('','',#233);
#233 = PRODUCT_DEFINITION('design','',#234,#237);
#234 = PRODUCT_DEFINITION_FORMATION('','',#235);
#235 = PRODUCT('Cell_5_0','Cell_5_0','',(#236));
#236 = PRODUCT_CONTEXT('',#2,'mechanical');
#237 = PRODUCT_DEFINITION_CONTEXT('part definition',#2,'design');
#238 = ADVANCED_BREP_SHAPE_REPRESENTATION('',(#11,#239),#263);
#239 = BREP_WITH_VOIDS('',#240,(#251));
#240 = CLOSED_SHELL('',(#241));
#241 = ADVANCED_FACE('',(#242),#246,.T.);
#242 = FACE_BOUND('',#243,.T.);
#243 = VERTEX_LOOP('',#244);
#244 = VERTEX_POINT('',#245);
#245 = CARTESIAN_POINT('',(6.123233995737E-14,-1.499759782662E-29,
    -1.E+03));
#246 = SPHERICAL_SURFACE('',#247,1.E+03);
#247 = AXIS2_PLACEMENT_3D('',#248,#249,#250);
#248 = CARTESIAN_POINT('',(0.,0.,0.));
#249 = DIRECTION('',(0.,0.,1.));
#250 = DIRECTION('',(1.,0.,-0.));
#251 = ORIENTED_CLOSED_SHELL('',*,#252,.F.);
#252 = CLOSED_SHELL('',(#253));
#253 = ADVANCED_FACE('',(#254),#258,.T.);
#254 = FACE_BOUND('',#255,.T.);
#255 = VERTEX_LOOP('',#256);
#256 = VERTEX_POINT('',#257);
#257 = CARTESIAN_POINT('',(1.221585182149E-14,-2.99202076641E-30,-199.5)
  );
#258 = SPHERICAL_SURFACE('',#259,199.5);
#259 = AXIS2_PLACEMENT_3D('',#260,#261,#262);
#260 = CARTESIAN_POINT('',(0.,0.,0.));
#261 = DIRECTION('',(0.,0.,1.));
#262 = DIRECTION('',(1.,0.,-0.));
#263 = ( GEOMETRIC_REPRESENTATION_CONTEXT(3) 
GLOBAL_UNCERTAINTY_ASSIGNED_CONTEXT((#267)) GLOBAL_UNIT_ASSIGNED_CONTEXT
((#264,#265,#266)) REPRESENTATION_CONTEXT('Context #1',
  '3D Context with UNIT and UNCERTAINTY') );
#264 = ( LENGTH_UNIT() NAMED_UNIT(*) SI_UNIT(.MILLI.,.METRE.) );
#265 = ( NAMED_UNIT(*) PLANE_ANGLE_UNIT() SI_UNIT($,.RADIAN.) );
#266 = ( NAMED_UNIT(*) SI_UNIT($,.STERADIAN.) SOLID_ANGLE_UNIT() );
#267 = UNCERTAINTY_MEASURE_WITH_UNIT(LENGTH_MEASURE(1.E-07),#264,
  'distance_accuracy_value','confusion accuracy');
#268 = CONTEXT_DEPENDENT_SHAPE_REPRESENTATION(#269,#271);
#269 = ( REPRESENTATION_RELATIONSHIP('','',#238,#63) 
REPRESENTATION_RELATIONSHIP_WITH_TRANSFORMATION(#270) 
SHAPE_REPRESENTATION_RELATIONSHIP() );
#270 = ITEM_DEFINED_TRANSFORMATION('','',#11,#68);
#271 = PRODUCT_DEFINITION_SHAPE('Placement','Placement of an item',#272
  );
#272 = NEXT_ASSEMBLY_USAGE_OCCURRENCE('2','Cell_5_0','',#58,#233,$);
#273 = PRODUCT_RELATED_PRODUCT_CATEGORY('part',$,(#235));
#274 = SHAPE_DEFINITION_REPRESENTATION(#275,#281);
#275 = PRODUCT_DEFINITION_SHAPE('','',#276);
#276 = PRODUCT_DEFINITION('design','',#277,#280);
#277 = PRODUCT_DEFINITION_FORMATION('','',#278);
#278 = PRODUCT('Material_2_None0','Material_2_None0','',(#279));
#279 = PRODUCT_CONTEXT('',#2,'mechanical');
#280 = PRODUCT_DEFINITION_CONTEXT('part definition',#2,'design');
#281 = SHAPE_REPRESENTATION('',(#11,#282,#286),#290);
#282 = AXIS2_PLACEMENT_3D('',#283,#284,#285);
#283 = CARTESIAN_POINT('',(0.,0.,0.));
#284 = DIRECTION('',(0.,0.,1.));
#285 = DIRECTION('',(1.,0.,0.));
#286 = AXIS2_PLACEMENT_3D('',#287,#288,#289);
#287 = CARTESIAN_POINT('',(0.,0.,0.));
#288 = DIRECTION('',(0.,0.,1.));
#289 = DIRECTION('',(1.,0.,0.));
#290 = ( GEOMETRIC_REPRESENTATION_CONTEXT(3) 
GLOBAL_UNCERTAINTY_ASSIGNED_CONTEXT((#294)) GLOBAL_UNIT_ASSIGNED_CONTEXT
((#291,#292,#293)) REPRESENTATION_CONTEXT('Context #1',
  '3D Context with UNIT and UNCERTAINTY') );
#291 = ( LENGTH_UNIT() NAMED_UNIT(*) SI_UNIT(.MILLI.,.METRE.) );
#292 = ( NAMED_UNIT(*) PLANE_ANGLE_UNIT() SI_UNIT($,.RADIAN.) );
#293 = ( NAMED_UNIT(*) SI_UNIT($,.STERADIAN.) SOLID_ANGLE_UNIT() );
#294 = UNCERTAINTY_MEASURE_WITH_UNIT(LENGTH_MEASURE(1.E-07),#291,
  'distance_accuracy_value','confusion accuracy');
#295 = CONTEXT_DEPENDENT_SHAPE_REPRESENTATION(#296,#298);
#296 = ( REPRESENTATION_RELATIONSHIP('','',#281,#32) 
REPRESENTATION_RELATIONSHIP_WITH_TRANSFORMATION(#297) 
SHAPE_REPRESENTATION_RELATIONSHIP() );
#297 = ITEM_DEFINED_TRANSFORMATION('','',#11,#37);
#298 = PRODUCT_DEFINITION_SHAPE('Placement','Placement of an item',#299
  );
#299 = NEXT_ASSEMBLY_USAGE_OCCURRENCE('6','Material_2_None0','',#27,#276
  ,$);
#300 = PRODUCT_RELATED_PRODUCT_CATEGORY('part',$,(#278));
#301 = SHAPE_DEFINITION_REPRESENTATION(#302,#308);
#302 = PRODUCT_DEFINITION_SHAPE('','',#303);
#303 = PRODUCT_DEFINITION('design','',#304,#307);
#304 = PRODUCT_DEFINITION_FORMATION('','',#305);
#305 = PRODUCT('Cell_2_2','Cell_2_2','',(#306));
#306 = PRODUCT_CONTEXT('',#2,'mechanical');
#307 = PRODUCT_DEFINITION_CONTEXT('part definition',#2,'design');
#308 = ADVANCED_BREP_SHAPE_REPRESENTATION('',(#11,#309),#549);
#309 = MANIFOLD_SOLID_BREP('',#310);
#310 = CLOSED_SHELL('',(#311,#348,#378,#412,#446,#464,#490,#519));
#311 = ADVANCED_FACE('',(#312,#332),#343,.T.);
#312 = FACE_BOUND('',#313,.T.);
#313 = EDGE_LOOP('',(#314,#325));
#314 = ORIENTED_EDGE('',*,*,#315,.T.);
#315 = EDGE_CURVE('',#316,#318,#320,.T.);
#316 = VERTEX_POINT('',#317);
#317 = CARTESIAN_POINT('',(83.2,-2.037812273781E-14,-59.00644032645));
#318 = VERTEX_POINT('',#319);
#319 = CARTESIAN_POINT('',(83.2,-2.037812273781E-14,59.006440326459));
#320 = CIRCLE('',#321,59.006440326459);
#321 = AXIS2_PLACEMENT_3D('',#322,#323,#324);
#322 = CARTESIAN_POINT('',(83.2,0.,0.));
#323 = DIRECTION('',(1.,0.,0.));
#324 = DIRECTION('',(-0.,0.,1.));
#325 = ORIENTED_EDGE('',*,*,#326,.T.);
#326 = EDGE_CURVE('',#318,#316,#327,.T.);
#327 = CIRCLE('',#328,59.006440326459);
#328 = AXIS2_PLACEMENT_3D('',#329,#330,#331);
#329 = CARTESIAN_POINT('',(83.2,0.,0.));
#330 = DIRECTION('',(1.,0.,0.));
#331 = DIRECTION('',(-0.,0.,1.));
#332 = FACE_BOUND('',#333,.T.);
#333 = EDGE_LOOP('',(#334));
#334 = ORIENTED_EDGE('',*,*,#335,.F.);
#335 = EDGE_CURVE('',#336,#336,#338,.T.);
#336 = VERTEX_POINT('',#337);
#337 = CARTESIAN_POINT('',(83.2,1.408343819019E-14,57.5));
#338 = CIRCLE('',#339,57.5);
#339 = AXIS2_PLACEMENT_3D('',#340,#341,#342);
#340 = CARTESIAN_POINT('',(83.2,0.,0.));
#341 = DIRECTION('',(1.,0.,0.));
#342 = DIRECTION('',(-0.,0.,1.));
#343 = PLANE('',#344);
#344 = AXIS2_PLACEMENT_3D('',#345,#346,#347);
#345 = CARTESIAN_POINT('',(83.2,-5.952190456629E-15,5.952190456629E-15)
  );
#346 = DIRECTION('',(1.,0.,0.));
#347 = DIRECTION('',(-0.,0.,1.));
#348 = ADVANCED_FACE('',(#349),#373,.T.);
#349 = FACE_BOUND('',#350,.T.);
#350 = EDGE_LOOP('',(#351,#360,#361,#362,#371,#372));
#351 = ORIENTED_EDGE('',*,*,#352,.T.);
#352 = EDGE_CURVE('',#318,#353,#355,.T.);
#353 = VERTEX_POINT('',#354);
#354 = CARTESIAN_POINT('',(6.245698675652E-15,-1.529754978315E-30,102.)
  );
#355 = CIRCLE('',#356,102.);
#356 = AXIS2_PLACEMENT_3D('',#357,#358,#359);
#357 = CARTESIAN_POINT('',(0.,0.,0.));
#358 = DIRECTION('',(-2.449293598295E-16,-1.,0.));
#359 = DIRECTION('',(1.,-2.449293598295E-16,0.));
#360 = ORIENTED_EDGE('',*,*,#352,.F.);
#361 = ORIENTED_EDGE('',*,*,#315,.F.);
#362 = ORIENTED_EDGE('',*,*,#363,.F.);
#363 = EDGE_CURVE('',#364,#316,#366,.T.);
#364 = VERTEX_POINT('',#365);
#365 = CARTESIAN_POINT('',(6.245698675652E-15,-1.529754978315E-30,-102.)
  );
#366 = CIRCLE('',#367,102.);
#367 = AXIS2_PLACEMENT_3D('',#368,#369,#370);
#368 = CARTESIAN_POINT('',(0.,0.,0.));
#369 = DIRECTION('',(-2.449293598295E-16,-1.,0.));
#370 = DIRECTION('',(1.,-2.449293598295E-16,0.));
#371 = ORIENTED_EDGE('',*,*,#363,.T.);
#372 = ORIENTED_EDGE('',*,*,#326,.F.);
#373 = SPHERICAL_SURFACE('',#374,102.);
#374 = AXIS2_PLACEMENT_3D('',#375,#376,#377);
#375 = CARTESIAN_POINT('',(0.,0.,0.));
#376 = DIRECTION('',(0.,0.,1.));
#377 = DIRECTION('',(1.,0.,-0.));
#378 = ADVANCED_FACE('',(#379),#407,.T.);
#379 = FACE_BOUND('',#380,.T.);
#380 = EDGE_LOOP('',(#381,#389,#398,#405,#406));
#381 = ORIENTED_EDGE('',*,*,#382,.T.);
#382 = EDGE_CURVE('',#336,#383,#385,.T.);
#383 = VERTEX_POINT('',#384);
#384 = CARTESIAN_POINT('',(191.03402838238,-1.635320204357E-14,
    57.499999999996));
#385 = LINE('',#386,#387);
#386 = CARTESIAN_POINT('',(43.658,1.408343819019E-14,57.5));
#387 = VECTOR('',#388,1.);
#388 = DIRECTION('',(1.,0.,0.));
#389 = ORIENTED_EDGE('',*,*,#390,.F.);
#390 = EDGE_CURVE('',#391,#383,#393,.T.);
#391 = VERTEX_POINT('',#392);
#392 = CARTESIAN_POINT('',(191.03402838238,-4.678984227734E-14,-57.5));
#393 = CIRCLE('',#394,57.5);
#394 = AXIS2_PLACEMENT_3D('',#395,#396,#397);
#395 = CARTESIAN_POINT('',(191.03402838238,0.,0.));
#396 = DIRECTION('',(1.,0.,0.));
#397 = DIRECTION('',(-0.,0.,1.));
#398 = ORIENTED_EDGE('',*,*,#399,.F.);
#399 = EDGE_CURVE('',#383,#391,#400,.T.);
#400 = CIRCLE('',#401,57.5);
#401 = AXIS2_PLACEMENT_3D('',#402,#403,#404);
#402 = CARTESIAN_POINT('',(191.03402838238,0.,0.));
#403 = DIRECTION('',(1.,0.,0.));
#404 = DIRECTION('',(-0.,0.,1.));
#405 = ORIENTED_EDGE('',*,*,#382,.F.);
#406 = ORIENTED_EDGE('',*,*,#335,.T.);
#407 = CYLINDRICAL_SURFACE('',#408,57.5);
#408 = AXIS2_PLACEMENT_3D('',#409,#410,#411);
#409 = CARTESIAN_POINT('',(43.658,0.,0.));
#410 = DIRECTION('',(1.,0.,0.));
#411 = DIRECTION('',(-0.,0.,1.));
#412 = ADVANCED_FACE('',(#413),#441,.T.);
#413 = FACE_BOUND('',#414,.T.);
#414 = EDGE_LOOP('',(#415,#426,#433,#434));
#415 = ORIENTED_EDGE('',*,*,#416,.F.);
#416 = EDGE_CURVE('',#417,#419,#421,.T.);
#417 = VERTEX_POINT('',#418);
#418 = CARTESIAN_POINT('',(191.62463307205,-1.667045961768E-14,
    55.500000000003));
#419 = VERTEX_POINT('',#420);
#420 = CARTESIAN_POINT('',(191.62463307205,-4.69344987059E-14,-55.5));
#421 = CIRCLE('',#422,55.5);
#422 = AXIS2_PLACEMENT_3D('',#423,#424,#425);
#423 = CARTESIAN_POINT('',(191.62463307205,0.,0.));
#424 = DIRECTION('',(1.,0.,0.));
#425 = DIRECTION('',(-0.,0.,1.));
#426 = ORIENTED_EDGE('',*,*,#427,.T.);
#427 = EDGE_CURVE('',#417,#383,#428,.T.);
#428 = CIRCLE('',#429,199.5);
#429 = AXIS2_PLACEMENT_3D('',#430,#431,#432);
#430 = CARTESIAN_POINT('',(0.,0.,0.));
#431 = DIRECTION('',(-2.449293598295E-16,-1.,0.));
#432 = DIRECTION('',(1.,-2.449293598295E-16,0.));
#433 = ORIENTED_EDGE('',*,*,#399,.T.);
#434 = ORIENTED_EDGE('',*,*,#435,.T.);
#435 = EDGE_CURVE('',#391,#419,#436,.T.);
#436 = CIRCLE('',#437,199.5);
#437 = AXIS2_PLACEMENT_3D('',#438,#439,#440);
#438 = CARTESIAN_POINT('',(0.,0.,0.));
#439 = DIRECTION('',(-2.449293598295E-16,-1.,0.));
#440 = DIRECTION('',(1.,-2.449293598295E-16,0.));
#441 = SPHERICAL_SURFACE('',#442,199.5);
#442 = AXIS2_PLACEMENT_3D('',#443,#444,#445);
#443 = CARTESIAN_POINT('',(0.,0.,0.));
#444 = DIRECTION('',(0.,0.,1.));
#445 = DIRECTION('',(1.,0.,-0.));
#446 = ADVANCED_FACE('',(#447),#459,.T.);
#447 = FACE_BOUND('',#448,.T.);
#448 = EDGE_LOOP('',(#449,#450,#451,#452));
#449 = ORIENTED_EDGE('',*,*,#435,.F.);
#450 = ORIENTED_EDGE('',*,*,#390,.T.);
#451 = ORIENTED_EDGE('',*,*,#427,.F.);
#452 = ORIENTED_EDGE('',*,*,#453,.F.);
#453 = EDGE_CURVE('',#419,#417,#454,.T.);
#454 = CIRCLE('',#455,55.5);
#455 = AXIS2_PLACEMENT_3D('',#456,#457,#458);
#456 = CARTESIAN_POINT('',(191.62463307205,0.,0.));
#457 = DIRECTION('',(1.,0.,0.));
#458 = DIRECTION('',(-0.,0.,1.));
#459 = SPHERICAL_SURFACE('',#460,199.5);
#460 = AXIS2_PLACEMENT_3D('',#461,#462,#463);
#461 = CARTESIAN_POINT('',(0.,0.,0.));
#462 = DIRECTION('',(0.,0.,1.));
#463 = DIRECTION('',(1.,0.,-0.));
#464 = ADVANCED_FACE('',(#465),#485,.F.);
#465 = FACE_BOUND('',#466,.F.);
#466 = EDGE_LOOP('',(#467,#475,#476,#477,#478));
#467 = ORIENTED_EDGE('',*,*,#468,.T.);
#468 = EDGE_CURVE('',#469,#417,#471,.T.);
#469 = VERTEX_POINT('',#470);
#470 = CARTESIAN_POINT('',(83.2,1.359357947054E-14,55.5));
#471 = LINE('',#472,#473);
#472 = CARTESIAN_POINT('',(43.658,1.359357947054E-14,55.5));
#473 = VECTOR('',#474,1.);
#474 = DIRECTION('',(1.,0.,0.));
#475 = ORIENTED_EDGE('',*,*,#453,.F.);
#476 = ORIENTED_EDGE('',*,*,#416,.F.);
#477 = ORIENTED_EDGE('',*,*,#468,.F.);
#478 = ORIENTED_EDGE('',*,*,#479,.T.);
#479 = EDGE_CURVE('',#469,#469,#480,.T.);
#480 = CIRCLE('',#481,55.5);
#481 = AXIS2_PLACEMENT_3D('',#482,#483,#484);
#482 = CARTESIAN_POINT('',(83.2,0.,0.));
#483 = DIRECTION('',(1.,0.,0.));
#484 = DIRECTION('',(-0.,0.,1.));
#485 = CYLINDRICAL_SURFACE('',#486,55.5);
#486 = AXIS2_PLACEMENT_3D('',#487,#488,#489);
#487 = CARTESIAN_POINT('',(43.658,0.,0.));
#488 = DIRECTION('',(1.,0.,0.));
#489 = DIRECTION('',(-0.,0.,1.));
#490 = ADVANCED_FACE('',(#491,#494),#514,.T.);
#491 = FACE_BOUND('',#492,.T.);
#492 = EDGE_LOOP('',(#493));
#493 = ORIENTED_EDGE('',*,*,#479,.T.);
#494 = FACE_BOUND('',#495,.T.);
#495 = EDGE_LOOP('',(#496,#507));
#496 = ORIENTED_EDGE('',*,*,#497,.F.);
#497 = EDGE_CURVE('',#498,#500,#502,.T.);
#498 = VERTEX_POINT('',#499);
#499 = CARTESIAN_POINT('',(83.2,-2.037812273781E-14,55.477563032274));
#500 = VERTEX_POINT('',#501);
#501 = CARTESIAN_POINT('',(83.2,-2.037812273781E-14,-55.47756303227));
#502 = CIRCLE('',#503,55.477563032275);
#503 = AXIS2_PLACEMENT_3D('',#504,#505,#506);
#504 = CARTESIAN_POINT('',(83.2,0.,0.));
#505 = DIRECTION('',(1.,0.,0.));
#506 = DIRECTION('',(-0.,0.,1.));
#507 = ORIENTED_EDGE('',*,*,#508,.F.);
#508 = EDGE_CURVE('',#500,#498,#509,.T.);
#509 = CIRCLE('',#510,55.477563032275);
#510 = AXIS2_PLACEMENT_3D('',#511,#512,#513);
#511 = CARTESIAN_POINT('',(83.2,0.,0.));
#512 = DIRECTION('',(1.,0.,0.));
#513 = DIRECTION('',(-0.,0.,1.));
#514 = PLANE('',#515);
#515 = AXIS2_PLACEMENT_3D('',#516,#517,#518);
#516 = CARTESIAN_POINT('',(83.2,-5.952190456629E-15,5.952190456629E-15)
  );
#517 = DIRECTION('',(1.,0.,0.));
#518 = DIRECTION('',(-0.,0.,1.));
#519 = ADVANCED_FACE('',(#520),#544,.F.);
#520 = FACE_BOUND('',#521,.F.);
#521 = EDGE_LOOP('',(#522,#531,#532,#533,#542,#543));
#522 = ORIENTED_EDGE('',*,*,#523,.T.);
#523 = EDGE_CURVE('',#498,#524,#526,.T.);
#524 = VERTEX_POINT('',#525);
#525 = CARTESIAN_POINT('',(6.123233995737E-15,-1.499759782662E-30,100.)
  );
#526 = CIRCLE('',#527,100.);
#527 = AXIS2_PLACEMENT_3D('',#528,#529,#530);
#528 = CARTESIAN_POINT('',(0.,0.,0.));
#529 = DIRECTION('',(-2.449293598295E-16,-1.,0.));
#530 = DIRECTION('',(1.,-2.449293598295E-16,0.));
#531 = ORIENTED_EDGE('',*,*,#523,.F.);
#532 = ORIENTED_EDGE('',*,*,#508,.F.);
#533 = ORIENTED_EDGE('',*,*,#534,.F.);
#534 = EDGE_CURVE('',#535,#500,#537,.T.);
#535 = VERTEX_POINT('',#536);
#536 = CARTESIAN_POINT('',(6.123233995737E-15,-1.499759782662E-30,-100.)
  );
#537 = CIRCLE('',#538,100.);
#538 = AXIS2_PLACEMENT_3D('',#539,#540,#541);
#539 = CARTESIAN_POINT('',(0.,0.,0.));
#540 = DIRECTION('',(-2.449293598295E-16,-1.,0.));
#541 = DIRECTION('',(1.,-2.449293598295E-16,0.));
#542 = ORIENTED_EDGE('',*,*,#534,.T.);
#543 = ORIENTED_EDGE('',*,*,#497,.F.);
#544 = SPHERICAL_SURFACE('',#545,100.);
#545 = AXIS2_PLACEMENT_3D('',#546,#547,#548);
#546 = CARTESIAN_POINT('',(0.,0.,0.));
#547 = DIRECTION('',(0.,0.,1.));
#548 = DIRECTION('',(1.,0.,-0.));
#549 = ( GEOMETRIC_REPRESENTATION_CONTEXT(3) 
GLOBAL_UNCERTAINTY_ASSIGNED_CONTEXT((#553)) GLOBAL_UNIT_ASSIGNED_CONTEXT
((#550,#551,#552)) REPRESENTATION_CONTEXT('Context #1',
  '3D Context with UNIT and UNCERTAINTY') );
#550 = ( LENGTH_UNIT() NAMED_UNIT(*) SI_UNIT(.MILLI.,.METRE.) );
#551 = ( NAMED_UNIT(*) PLANE_ANGLE_UNIT() SI_UNIT($,.RADIAN.) );
#552 = ( NAMED_UNIT(*) SI_UNIT($,.STERADIAN.) SOLID_ANGLE_UNIT() );
#553 = UNCERTAINTY_MEASURE_WITH_UNIT(LENGTH_MEASURE(1.E-07),#550,
  'distance_accuracy_value','confusion accuracy');
#554 = CONTEXT_DEPENDENT_SHAPE_REPRESENTATION(#555,#557);
#555 = ( REPRESENTATION_RELATIONSHIP('','',#308,#281) 
REPRESENTATION_RELATIONSHIP_WITH_TRANSFORMATION(#556) 
SHAPE_REPRESENTATION_RELATIONSHIP() );
#556 = ITEM_DEFINED_TRANSFORMATION('','',#11,#282);
#557 = PRODUCT_DEFINITION_SHAPE('Placement','Placement of an item',#558
  );
#558 = NEXT_ASSEMBLY_USAGE_OCCURRENCE('4','Cell_2_2','',#276,#303,$);
#559 = PRODUCT_RELATED_PRODUCT_CATEGORY('part',$,(#305));
#560 = SHAPE_DEFINITION_REPRESENTATION(#561,#567);
#561 = PRODUCT_DEFINITION_SHAPE('','',#562);
#562 = PRODUCT_DEFINITION('design','',#563,#566);
#563 = PRODUCT_DEFINITION_FORMATION('','',#564);
#564 = PRODUCT('Cell_4_2','Cell_4_2','',(#565));
#565 = PRODUCT_CONTEXT('',#2,'mechanical');
#566 = PRODUCT_DEFINITION_CONTEXT('part definition',#2,'design');
#567 = ADVANCED_BREP_SHAPE_REPRESENTATION('',(#11,#568),#785);
#568 = MANIFOLD_SOLID_BREP('',#569);
#569 = CLOSED_SHELL('',(#570,#616,#650,#668,#703,#737,#755));
#570 = ADVANCED_FACE('',(#571),#611,.T.);
#571 = FACE_BOUND('',#572,.T.);
#572 = EDGE_LOOP('',(#573,#584,#593,#594,#601,#610));
#573 = ORIENTED_EDGE('',*,*,#574,.F.);
#574 = EDGE_CURVE('',#575,#577,#579,.T.);
#575 = VERTEX_POINT('',#576);
#576 = CARTESIAN_POINT('',(83.2,-2.037812273781E-14,181.32294394256));
#577 = VERTEX_POINT('',#578);
#578 = CARTESIAN_POINT('',(83.2,-2.037812273781E-14,-181.3229439425));
#579 = CIRCLE('',#580,181.32294394256);
#580 = AXIS2_PLACEMENT_3D('',#581,#582,#583);
#581 = CARTESIAN_POINT('',(83.2,0.,0.));
#582 = DIRECTION('',(1.,0.,0.));
#583 = DIRECTION('',(-0.,0.,1.));
#584 = ORIENTED_EDGE('',*,*,#585,.T.);
#585 = EDGE_CURVE('',#575,#586,#588,.T.);
#586 = VERTEX_POINT('',#587);
#587 = CARTESIAN_POINT('',(1.221585182149E-14,-2.99202076641E-30,199.5)
  );
#588 = CIRCLE('',#589,199.5);
#589 = AXIS2_PLACEMENT_3D('',#590,#591,#592);
#590 = CARTESIAN_POINT('',(0.,0.,0.));
#591 = DIRECTION('',(-2.449293598295E-16,-1.,0.));
#592 = DIRECTION('',(1.,-2.449293598295E-16,0.));
#593 = ORIENTED_EDGE('',*,*,#585,.F.);
#594 = ORIENTED_EDGE('',*,*,#595,.F.);
#595 = EDGE_CURVE('',#577,#575,#596,.T.);
#596 = CIRCLE('',#597,181.32294394256);
#597 = AXIS2_PLACEMENT_3D('',#598,#599,#600);
#598 = CARTESIAN_POINT('',(83.2,0.,0.));
#599 = DIRECTION('',(1.,0.,0.));
#600 = DIRECTION('',(-0.,0.,1.));
#601 = ORIENTED_EDGE('',*,*,#602,.F.);
#602 = EDGE_CURVE('',#603,#577,#605,.T.);
#603 = VERTEX_POINT('',#604);
#604 = CARTESIAN_POINT('',(1.221585182149E-14,-2.99202076641E-30,-199.5)
  );
#605 = CIRCLE('',#606,199.5);
#606 = AXIS2_PLACEMENT_3D('',#607,#608,#609);
#607 = CARTESIAN_POINT('',(0.,0.,0.));
#608 = DIRECTION('',(-2.449293598295E-16,-1.,0.));
#609 = DIRECTION('',(1.,-2.449293598295E-16,0.));
#610 = ORIENTED_EDGE('',*,*,#602,.T.);
#611 = SPHERICAL_SURFACE('',#612,199.5);
#612 = AXIS2_PLACEMENT_3D('',#613,#614,#615);
#613 = CARTESIAN_POINT('',(0.,0.,0.));
#614 = DIRECTION('',(0.,0.,1.));
#615 = DIRECTION('',(1.,0.,-0.));
#616 = ADVANCED_FACE('',(#617),#645,.T.);
#617 = FACE_BOUND('',#618,.T.);
#618 = EDGE_LOOP('',(#619,#628,#629,#638));
#619 = ORIENTED_EDGE('',*,*,#620,.T.);
#620 = EDGE_CURVE('',#621,#575,#623,.T.);
#621 = VERTEX_POINT('',#622);
#622 = CARTESIAN_POINT('',(191.03402838237,-1.635320204357E-14,
    57.500000000001));
#623 = CIRCLE('',#624,199.5);
#624 = AXIS2_PLACEMENT_3D('',#625,#626,#627);
#625 = CARTESIAN_POINT('',(0.,0.,0.));
#626 = DIRECTION('',(-2.449293598295E-16,-1.,0.));
#627 = DIRECTION('',(1.,-2.449293598295E-16,0.));
#628 = ORIENTED_EDGE('',*,*,#574,.T.);
#629 = ORIENTED_EDGE('',*,*,#630,.T.);
#630 = EDGE_CURVE('',#577,#631,#633,.T.);
#631 = VERTEX_POINT('',#632);
#632 = CARTESIAN_POINT('',(191.03402838238,-4.678984227734E-14,-57.5));
#633 = CIRCLE('',#634,199.5);
#634 = AXIS2_PLACEMENT_3D('',#635,#636,#637);
#635 = CARTESIAN_POINT('',(0.,0.,0.));
#636 = DIRECTION('',(-2.449293598295E-16,-1.,0.));
#637 = DIRECTION('',(1.,-2.449293598295E-16,0.));
#638 = ORIENTED_EDGE('',*,*,#639,.F.);
#639 = EDGE_CURVE('',#621,#631,#640,.T.);
#640 = CIRCLE('',#641,57.5);
#641 = AXIS2_PLACEMENT_3D('',#642,#643,#644);
#642 = CARTESIAN_POINT('',(191.03402838238,0.,0.));
#643 = DIRECTION('',(1.,0.,0.));
#644 = DIRECTION('',(-0.,0.,1.));
#645 = SPHERICAL_SURFACE('',#646,199.5);
#646 = AXIS2_PLACEMENT_3D('',#647,#648,#649);
#647 = CARTESIAN_POINT('',(0.,0.,0.));
#648 = DIRECTION('',(0.,0.,1.));
#649 = DIRECTION('',(1.,0.,-0.));
#650 = ADVANCED_FACE('',(#651),#663,.T.);
#651 = FACE_BOUND('',#652,.T.);
#652 = EDGE_LOOP('',(#653,#654,#655,#662));
#653 = ORIENTED_EDGE('',*,*,#595,.T.);
#654 = ORIENTED_EDGE('',*,*,#620,.F.);
#655 = ORIENTED_EDGE('',*,*,#656,.F.);
#656 = EDGE_CURVE('',#631,#621,#657,.T.);
#657 = CIRCLE('',#658,57.5);
#658 = AXIS2_PLACEMENT_3D('',#659,#660,#661);
#659 = CARTESIAN_POINT('',(191.03402838238,0.,0.));
#660 = DIRECTION('',(1.,0.,0.));
#661 = DIRECTION('',(-0.,0.,1.));
#662 = ORIENTED_EDGE('',*,*,#630,.F.);
#663 = SPHERICAL_SURFACE('',#664,199.5);
#664 = AXIS2_PLACEMENT_3D('',#665,#666,#667);
#665 = CARTESIAN_POINT('',(0.,0.,0.));
#666 = DIRECTION('',(0.,0.,1.));
#667 = DIRECTION('',(1.,0.,-0.));
#668 = ADVANCED_FACE('',(#669),#698,.F.);
#669 = FACE_BOUND('',#670,.F.);
#670 = EDGE_LOOP('',(#671,#682,#688,#689,#690,#691));
#671 = ORIENTED_EDGE('',*,*,#672,.T.);
#672 = EDGE_CURVE('',#673,#675,#677,.T.);
#673 = VERTEX_POINT('',#674);
#674 = CARTESIAN_POINT('',(188.94443627691,-4.627803982064E-14,-57.5));
#675 = VERTEX_POINT('',#676);
#676 = CARTESIAN_POINT('',(188.94443627691,-1.609730081523E-14,
    57.499999999998));
#677 = CIRCLE('',#678,57.5);
#678 = AXIS2_PLACEMENT_3D('',#679,#680,#681);
#679 = CARTESIAN_POINT('',(188.94443627691,0.,0.));
#680 = DIRECTION('',(1.,0.,0.));
#681 = DIRECTION('',(-0.,0.,1.));
#682 = ORIENTED_EDGE('',*,*,#683,.T.);
#683 = EDGE_CURVE('',#675,#621,#684,.T.);
#684 = LINE('',#685,#686);
#685 = CARTESIAN_POINT('',(43.658,1.408343819019E-14,57.5));
#686 = VECTOR('',#687,1.);
#687 = DIRECTION('',(1.,0.,0.));
#688 = ORIENTED_EDGE('',*,*,#656,.F.);
#689 = ORIENTED_EDGE('',*,*,#639,.F.);
#690 = ORIENTED_EDGE('',*,*,#683,.F.);
#691 = ORIENTED_EDGE('',*,*,#692,.T.);
#692 = EDGE_CURVE('',#675,#673,#693,.T.);
#693 = CIRCLE('',#694,57.5);
#694 = AXIS2_PLACEMENT_3D('',#695,#696,#697);
#695 = CARTESIAN_POINT('',(188.94443627691,0.,0.));
#696 = DIRECTION('',(1.,0.,0.));
#697 = DIRECTION('',(-0.,0.,1.));
#698 = CYLINDRICAL_SURFACE('',#699,57.5);
#699 = AXIS2_PLACEMENT_3D('',#700,#701,#702);
#700 = CARTESIAN_POINT('',(43.658,0.,0.));
#701 = DIRECTION('',(1.,0.,0.));
#702 = DIRECTION('',(-0.,0.,1.));
#703 = ADVANCED_FACE('',(#704),#732,.F.);
#704 = FACE_BOUND('',#705,.F.);
#705 = EDGE_LOOP('',(#706,#717,#724,#725));
#706 = ORIENTED_EDGE('',*,*,#707,.T.);
#707 = EDGE_CURVE('',#708,#710,#712,.T.);
#708 = VERTEX_POINT('',#709);
#709 = CARTESIAN_POINT('',(83.2,-2.037812273781E-14,-179.1200993746));
#710 = VERTEX_POINT('',#711);
#711 = CARTESIAN_POINT('',(83.2,-2.037812273781E-14,179.12009937469));
#712 = CIRCLE('',#713,179.12009937469);
#713 = AXIS2_PLACEMENT_3D('',#714,#715,#716);
#714 = CARTESIAN_POINT('',(83.2,0.,0.));
#715 = DIRECTION('',(1.,0.,0.));
#716 = DIRECTION('',(-0.,0.,1.));
#717 = ORIENTED_EDGE('',*,*,#718,.F.);
#718 = EDGE_CURVE('',#675,#710,#719,.T.);
#719 = CIRCLE('',#720,197.5);
#720 = AXIS2_PLACEMENT_3D('',#721,#722,#723);
#721 = CARTESIAN_POINT('',(0.,0.,0.));
#722 = DIRECTION('',(-2.449293598295E-16,-1.,0.));
#723 = DIRECTION('',(1.,-2.449293598295E-16,0.));
#724 = ORIENTED_EDGE('',*,*,#672,.F.);
#725 = ORIENTED_EDGE('',*,*,#726,.F.);
#726 = EDGE_CURVE('',#708,#673,#727,.T.);
#727 = CIRCLE('',#728,197.5);
#728 = AXIS2_PLACEMENT_3D('',#729,#730,#731);
#729 = CARTESIAN_POINT('',(0.,0.,0.));
#730 = DIRECTION('',(-2.449293598295E-16,-1.,0.));
#731 = DIRECTION('',(1.,-2.449293598295E-16,0.));
#732 = SPHERICAL_SURFACE('',#733,197.5);
#733 = AXIS2_PLACEMENT_3D('',#734,#735,#736);
#734 = CARTESIAN_POINT('',(0.,0.,0.));
#735 = DIRECTION('',(0.,0.,1.));
#736 = DIRECTION('',(1.,0.,-0.));
#737 = ADVANCED_FACE('',(#738),#750,.F.);
#738 = FACE_BOUND('',#739,.F.);
#739 = EDGE_LOOP('',(#740,#741,#748,#749));
#740 = ORIENTED_EDGE('',*,*,#718,.T.);
#741 = ORIENTED_EDGE('',*,*,#742,.T.);
#742 = EDGE_CURVE('',#710,#708,#743,.T.);
#743 = CIRCLE('',#744,179.12009937469);
#744 = AXIS2_PLACEMENT_3D('',#745,#746,#747);
#745 = CARTESIAN_POINT('',(83.2,0.,0.));
#746 = DIRECTION('',(1.,0.,0.));
#747 = DIRECTION('',(-0.,0.,1.));
#748 = ORIENTED_EDGE('',*,*,#726,.T.);
#749 = ORIENTED_EDGE('',*,*,#692,.F.);
#750 = SPHERICAL_SURFACE('',#751,197.5);
#751 = AXIS2_PLACEMENT_3D('',#752,#753,#754);
#752 = CARTESIAN_POINT('',(0.,0.,0.));
#753 = DIRECTION('',(0.,0.,1.));
#754 = DIRECTION('',(1.,0.,-0.));
#755 = ADVANCED_FACE('',(#756),#780,.F.);
#756 = FACE_BOUND('',#757,.F.);
#757 = EDGE_LOOP('',(#758,#759,#768,#769,#770,#779));
#758 = ORIENTED_EDGE('',*,*,#742,.F.);
#759 = ORIENTED_EDGE('',*,*,#760,.T.);
#760 = EDGE_CURVE('',#710,#761,#763,.T.);
#761 = VERTEX_POINT('',#762);
#762 = CARTESIAN_POINT('',(1.209338714158E-14,-2.962025570757E-30,197.5)
  );
#763 = CIRCLE('',#764,197.5);
#764 = AXIS2_PLACEMENT_3D('',#765,#766,#767);
#765 = CARTESIAN_POINT('',(0.,0.,0.));
#766 = DIRECTION('',(-2.449293598295E-16,-1.,0.));
#767 = DIRECTION('',(1.,-2.449293598295E-16,0.));
#768 = ORIENTED_EDGE('',*,*,#760,.F.);
#769 = ORIENTED_EDGE('',*,*,#707,.F.);
#770 = ORIENTED_EDGE('',*,*,#771,.F.);
#771 = EDGE_CURVE('',#772,#708,#774,.T.);
#772 = VERTEX_POINT('',#773);
#773 = CARTESIAN_POINT('',(1.209338714158E-14,-2.962025570757E-30,-197.5
    ));
#774 = CIRCLE('',#775,197.5);
#775 = AXIS2_PLACEMENT_3D('',#776,#777,#778);
#776 = CARTESIAN_POINT('',(0.,0.,0.));
#777 = DIRECTION('',(-2.449293598295E-16,-1.,0.));
#778 = DIRECTION('',(1.,-2.449293598295E-16,0.));
#779 = ORIENTED_EDGE('',*,*,#771,.T.);
#780 = SPHERICAL_SURFACE('',#781,197.5);
#781 = AXIS2_PLACEMENT_3D('',#782,#783,#784);
#782 = CARTESIAN_POINT('',(0.,0.,0.));
#783 = DIRECTION('',(0.,0.,1.));
#784 = DIRECTION('',(1.,0.,-0.));
#785 = ( GEOMETRIC_REPRESENTATION_CONTEXT(3) 
GLOBAL_UNCERTAINTY_ASSIGNED_CONTEXT((#789)) GLOBAL_UNIT_ASSIGNED_CONTEXT
((#786,#787,#788)) REPRESENTATION_CONTEXT('Context #1',
  '3D Context with UNIT and UNCERTAINTY') );
#786 = ( LENGTH_UNIT() NAMED_UNIT(*) SI_UNIT(.MILLI.,.METRE.) );
#787 = ( NAMED_UNIT(*) PLANE_ANGLE_UNIT() SI_UNIT($,.RADIAN.) );
#788 = ( NAMED_UNIT(*) SI_UNIT($,.STERADIAN.) SOLID_ANGLE_UNIT() );
#789 = UNCERTAINTY_MEASURE_WITH_UNIT(LENGTH_MEASURE(1.E-07),#786,
  'distance_accuracy_value','confusion accuracy');
#790 = CONTEXT_DEPENDENT_SHAPE_REPRESENTATION(#791,#793);
#791 = ( REPRESENTATION_RELATIONSHIP('','',#567,#281) 
REPRESENTATION_RELATIONSHIP_WITH_TRANSFORMATION(#792) 
SHAPE_REPRESENTATION_RELATIONSHIP() );
#792 = ITEM_DEFINED_TRANSFORMATION('','',#11,#286);
#793 = PRODUCT_DEFINITION_SHAPE('Placement','Placement of an item',#794
  );
#794 = NEXT_ASSEMBLY_USAGE_OCCURRENCE('5','Cell_4_2','',#276,#562,$);
#795 = PRODUCT_RELATED_PRODUCT_CATEGORY('part',$,(#564));
#796 = SHAPE_DEFINITION_REPRESENTATION(#797,#803);
#797 = PRODUCT_DEFINITION_SHAPE('','',#798);
#798 = PRODUCT_DEFINITION('design','',#799,#802);
#799 = PRODUCT_DEFINITION_FORMATION('','',#800);
#800 = PRODUCT('Material_1_None0','Material_1_None0','',(#801));
#801 = PRODUCT_CONTEXT('',#2,'mechanical');
#802 = PRODUCT_DEFINITION_CONTEXT('part definition',#2,'design');
#803 = SHAPE_REPRESENTATION('',(#11,#804),#808);
#804 = AXIS2_PLACEMENT_3D('',#805,#806,#807);
#805 = CARTESIAN_POINT('',(0.,0.,0.));
#806 = DIRECTION('',(0.,0.,1.));
#807 = DIRECTION('',(1.,0.,0.));
#808 = ( GEOMETRIC_REPRESENTATION_CONTEXT(3) 
GLOBAL_UNCERTAINTY_ASSIGNED_CONTEXT((#812)) GLOBAL_UNIT_ASSIGNED_CONTEXT
((#809,#810,#811)) REPRESENTATION_CONTEXT('Context #1',
  '3D Context with UNIT and UNCERTAINTY') );
#809 = ( LENGTH_UNIT() NAMED_UNIT(*) SI_UNIT(.MILLI.,.METRE.) );
#810 = ( NAMED_UNIT(*) PLANE_ANGLE_UNIT() SI_UNIT($,.RADIAN.) );
#811 = ( NAMED_UNIT(*) SI_UNIT($,.STERADIAN.) SOLID_ANGLE_UNIT() );
#812 = UNCERTAINTY_MEASURE_WITH_UNIT(LENGTH_MEASURE(1.E-07),#809,
  'distance_accuracy_value','confusion accuracy');
#813 = CONTEXT_DEPENDENT_SHAPE_REPRESENTATION(#814,#816);
#814 = ( REPRESENTATION_RELATIONSHIP('','',#803,#32) 
REPRESENTATION_RELATIONSHIP_WITH_TRANSFORMATION(#815) 
SHAPE_REPRESENTATION_RELATIONSHIP() );
#815 = ITEM_DEFINED_TRANSFORMATION('','',#11,#41);
#816 = PRODUCT_DEFINITION_SHAPE('Placement','Placement of an item',#817
  );
#817 = NEXT_ASSEMBLY_USAGE_OCCURRENCE('8','Material_1_None0','',#27,#798
  ,$);
#818 = PRODUCT_RELATED_PRODUCT_CATEGORY('part',$,(#800));
#819 = SHAPE_DEFINITION_REPRESENTATION(#820,#826);
#820 = PRODUCT_DEFINITION_SHAPE('','',#821);
#821 = PRODUCT_DEFINITION('design','',#822,#825);
#822 = PRODUCT_DEFINITION_FORMATION('','',#823);
#823 = PRODUCT('Cell_3_1','Cell_3_1','',(#824));
#824 = PRODUCT_CONTEXT('',#2,'mechanical');
#825 = PRODUCT_DEFINITION_CONTEXT('part definition',#2,'design');
#826 = ADVANCED_BREP_SHAPE_REPRESENTATION('',(#11,#827),#1012);
#827 = MANIFOLD_SOLID_BREP('',#828);
#828 = CLOSED_SHELL('',(#829,#875,#909,#927,#953,#982));
#829 = ADVANCED_FACE('',(#830),#870,.T.);
#830 = FACE_BOUND('',#831,.T.);
#831 = EDGE_LOOP('',(#832,#843,#852,#853,#860,#869));
#832 = ORIENTED_EDGE('',*,*,#833,.F.);
#833 = EDGE_CURVE('',#834,#836,#838,.T.);
#834 = VERTEX_POINT('',#835);
#835 = CARTESIAN_POINT('',(83.2,-2.037812273781E-14,179.12009937469));
#836 = VERTEX_POINT('',#837);
#837 = CARTESIAN_POINT('',(83.2,-2.037812273781E-14,-179.1200993746));
#838 = CIRCLE('',#839,179.12009937469);
#839 = AXIS2_PLACEMENT_3D('',#840,#841,#842);
#840 = CARTESIAN_POINT('',(83.2,0.,0.));
#841 = DIRECTION('',(1.,0.,0.));
#842 = DIRECTION('',(-0.,0.,1.));
#843 = ORIENTED_EDGE('',*,*,#844,.T.);
#844 = EDGE_CURVE('',#834,#845,#847,.T.);
#845 = VERTEX_POINT('',#846);
#846 = CARTESIAN_POINT('',(1.209338714158E-14,-2.962025570757E-30,197.5)
  );
#847 = CIRCLE('',#848,197.5);
#848 = AXIS2_PLACEMENT_3D('',#849,#850,#851);
#849 = CARTESIAN_POINT('',(0.,0.,0.));
#850 = DIRECTION('',(-2.449293598295E-16,-1.,0.));
#851 = DIRECTION('',(1.,-2.449293598295E-16,0.));
#852 = ORIENTED_EDGE('',*,*,#844,.F.);
#853 = ORIENTED_EDGE('',*,*,#854,.F.);
#854 = EDGE_CURVE('',#836,#834,#855,.T.);
#855 = CIRCLE('',#856,179.12009937469);
#856 = AXIS2_PLACEMENT_3D('',#857,#858,#859);
#857 = CARTESIAN_POINT('',(83.2,0.,0.));
#858 = DIRECTION('',(1.,0.,0.));
#859 = DIRECTION('',(-0.,0.,1.));
#860 = ORIENTED_EDGE('',*,*,#861,.F.);
#861 = EDGE_CURVE('',#862,#836,#864,.T.);
#862 = VERTEX_POINT('',#863);
#863 = CARTESIAN_POINT('',(1.209338714158E-14,-2.962025570757E-30,-197.5
    ));
#864 = CIRCLE('',#865,197.5);
#865 = AXIS2_PLACEMENT_3D('',#866,#867,#868);
#866 = CARTESIAN_POINT('',(0.,0.,0.));
#867 = DIRECTION('',(-2.449293598295E-16,-1.,0.));
#868 = DIRECTION('',(1.,-2.449293598295E-16,0.));
#869 = ORIENTED_EDGE('',*,*,#861,.T.);
#870 = SPHERICAL_SURFACE('',#871,197.5);
#871 = AXIS2_PLACEMENT_3D('',#872,#873,#874);
#872 = CARTESIAN_POINT('',(0.,0.,0.));
#873 = DIRECTION('',(0.,0.,1.));
#874 = DIRECTION('',(1.,0.,-0.));
#875 = ADVANCED_FACE('',(#876),#904,.T.);
#876 = FACE_BOUND('',#877,.T.);
#877 = EDGE_LOOP('',(#878,#887,#888,#897));
#878 = ORIENTED_EDGE('',*,*,#879,.T.);
#879 = EDGE_CURVE('',#880,#834,#882,.T.);
#880 = VERTEX_POINT('',#881);
#881 = CARTESIAN_POINT('',(188.94443627691,-1.609730081523E-14,
    57.499999999998));
#882 = CIRCLE('',#883,197.5);
#883 = AXIS2_PLACEMENT_3D('',#884,#885,#886);
#884 = CARTESIAN_POINT('',(0.,0.,0.));
#885 = DIRECTION('',(-2.449293598295E-16,-1.,0.));
#886 = DIRECTION('',(1.,-2.449293598295E-16,0.));
#887 = ORIENTED_EDGE('',*,*,#833,.T.);
#888 = ORIENTED_EDGE('',*,*,#889,.T.);
#889 = EDGE_CURVE('',#836,#890,#892,.T.);
#890 = VERTEX_POINT('',#891);
#891 = CARTESIAN_POINT('',(188.94443627691,-4.627803982064E-14,-57.5));
#892 = CIRCLE('',#893,197.5);
#893 = AXIS2_PLACEMENT_3D('',#894,#895,#896);
#894 = CARTESIAN_POINT('',(0.,0.,0.));
#895 = DIRECTION('',(-2.449293598295E-16,-1.,0.));
#896 = DIRECTION('',(1.,-2.449293598295E-16,0.));
#897 = ORIENTED_EDGE('',*,*,#898,.F.);
#898 = EDGE_CURVE('',#880,#890,#899,.T.);
#899 = CIRCLE('',#900,57.5);
#900 = AXIS2_PLACEMENT_3D('',#901,#902,#903);
#901 = CARTESIAN_POINT('',(188.94443627691,0.,0.));
#902 = DIRECTION('',(1.,0.,0.));
#903 = DIRECTION('',(-0.,0.,1.));
#904 = SPHERICAL_SURFACE('',#905,197.5);
#905 = AXIS2_PLACEMENT_3D('',#906,#907,#908);
#906 = CARTESIAN_POINT('',(0.,0.,0.));
#907 = DIRECTION('',(0.,0.,1.));
#908 = DIRECTION('',(1.,0.,-0.));
#909 = ADVANCED_FACE('',(#910),#922,.T.);
#910 = FACE_BOUND('',#911,.T.);
#911 = EDGE_LOOP('',(#912,#913,#914,#921));
#912 = ORIENTED_EDGE('',*,*,#854,.T.);
#913 = ORIENTED_EDGE('',*,*,#879,.F.);
#914 = ORIENTED_EDGE('',*,*,#915,.F.);
#915 = EDGE_CURVE('',#890,#880,#916,.T.);
#916 = CIRCLE('',#917,57.5);
#917 = AXIS2_PLACEMENT_3D('',#918,#919,#920);
#918 = CARTESIAN_POINT('',(188.94443627691,0.,0.));
#919 = DIRECTION('',(1.,0.,0.));
#920 = DIRECTION('',(-0.,0.,1.));
#921 = ORIENTED_EDGE('',*,*,#889,.F.);
#922 = SPHERICAL_SURFACE('',#923,197.5);
#923 = AXIS2_PLACEMENT_3D('',#924,#925,#926);
#924 = CARTESIAN_POINT('',(0.,0.,0.));
#925 = DIRECTION('',(0.,0.,1.));
#926 = DIRECTION('',(1.,0.,-0.));
#927 = ADVANCED_FACE('',(#928),#948,.F.);
#928 = FACE_BOUND('',#929,.F.);
#929 = EDGE_LOOP('',(#930,#931,#939,#946,#947));
#930 = ORIENTED_EDGE('',*,*,#898,.F.);
#931 = ORIENTED_EDGE('',*,*,#932,.F.);
#932 = EDGE_CURVE('',#933,#880,#935,.T.);
#933 = VERTEX_POINT('',#934);
#934 = CARTESIAN_POINT('',(83.2,1.408343819019E-14,57.5));
#935 = LINE('',#936,#937);
#936 = CARTESIAN_POINT('',(44.338,1.408343819019E-14,57.5));
#937 = VECTOR('',#938,1.);
#938 = DIRECTION('',(1.,0.,0.));
#939 = ORIENTED_EDGE('',*,*,#940,.T.);
#940 = EDGE_CURVE('',#933,#933,#941,.T.);
#941 = CIRCLE('',#942,57.5);
#942 = AXIS2_PLACEMENT_3D('',#943,#944,#945);
#943 = CARTESIAN_POINT('',(83.2,0.,0.));
#944 = DIRECTION('',(1.,0.,0.));
#945 = DIRECTION('',(-0.,0.,1.));
#946 = ORIENTED_EDGE('',*,*,#932,.T.);
#947 = ORIENTED_EDGE('',*,*,#915,.F.);
#948 = CYLINDRICAL_SURFACE('',#949,57.5);
#949 = AXIS2_PLACEMENT_3D('',#950,#951,#952);
#950 = CARTESIAN_POINT('',(44.338,0.,0.));
#951 = DIRECTION('',(1.,0.,0.));
#952 = DIRECTION('',(-0.,0.,1.));
#953 = ADVANCED_FACE('',(#954,#974),#977,.F.);
#954 = FACE_BOUND('',#955,.F.);
#955 = EDGE_LOOP('',(#956,#967));
#956 = ORIENTED_EDGE('',*,*,#957,.T.);
#957 = EDGE_CURVE('',#958,#960,#962,.T.);
#958 = VERTEX_POINT('',#959);
#959 = CARTESIAN_POINT('',(83.2,-2.037812273781E-14,-59.00644032645));
#960 = VERTEX_POINT('',#961);
#961 = CARTESIAN_POINT('',(83.2,-2.037812273781E-14,59.006440326459));
#962 = CIRCLE('',#963,59.006440326459);
#963 = AXIS2_PLACEMENT_3D('',#964,#965,#966);
#964 = CARTESIAN_POINT('',(83.2,0.,0.));
#965 = DIRECTION('',(1.,0.,0.));
#966 = DIRECTION('',(-0.,0.,1.));
#967 = ORIENTED_EDGE('',*,*,#968,.T.);
#968 = EDGE_CURVE('',#960,#958,#969,.T.);
#969 = CIRCLE('',#970,59.006440326459);
#970 = AXIS2_PLACEMENT_3D('',#971,#972,#973);
#971 = CARTESIAN_POINT('',(83.2,0.,0.));
#972 = DIRECTION('',(1.,0.,0.));
#973 = DIRECTION('',(-0.,0.,1.));
#974 = FACE_BOUND('',#975,.F.);
#975 = EDGE_LOOP('',(#976));
#976 = ORIENTED_EDGE('',*,*,#940,.F.);
#977 = PLANE('',#978);
#978 = AXIS2_PLACEMENT_3D('',#979,#980,#981);
#979 = CARTESIAN_POINT('',(83.2,0.,0.));
#980 = DIRECTION('',(1.,0.,0.));
#981 = DIRECTION('',(-0.,0.,1.));
#982 = ADVANCED_FACE('',(#983),#1007,.F.);
#983 = FACE_BOUND('',#984,.F.);
#984 = EDGE_LOOP('',(#985,#986,#995,#996,#997,#1006));
#985 = ORIENTED_EDGE('',*,*,#968,.F.);
#986 = ORIENTED_EDGE('',*,*,#987,.T.);
#987 = EDGE_CURVE('',#960,#988,#990,.T.);
#988 = VERTEX_POINT('',#989);
#989 = CARTESIAN_POINT('',(6.245698675652E-15,-1.529754978315E-30,102.)
  );
#990 = CIRCLE('',#991,102.);
#991 = AXIS2_PLACEMENT_3D('',#992,#993,#994);
#992 = CARTESIAN_POINT('',(0.,0.,0.));
#993 = DIRECTION('',(-2.449293598295E-16,-1.,0.));
#994 = DIRECTION('',(1.,-2.449293598295E-16,0.));
#995 = ORIENTED_EDGE('',*,*,#987,.F.);
#996 = ORIENTED_EDGE('',*,*,#957,.F.);
#997 = ORIENTED_EDGE('',*,*,#998,.F.);
#998 = EDGE_CURVE('',#999,#958,#1001,.T.);
#999 = VERTEX_POINT('',#1000);
#1000 = CARTESIAN_POINT('',(6.245698675652E-15,-1.529754978315E-30,-102.
    ));
#1001 = CIRCLE('',#1002,102.);
#1002 = AXIS2_PLACEMENT_3D('',#1003,#1004,#1005);
#1003 = CARTESIAN_POINT('',(0.,0.,0.));
#1004 = DIRECTION('',(-2.449293598295E-16,-1.,0.));
#1005 = DIRECTION('',(1.,-2.449293598295E-16,0.));
#1006 = ORIENTED_EDGE('',*,*,#998,.T.);
#1007 = SPHERICAL_SURFACE('',#1008,102.);
#1008 = AXIS2_PLACEMENT_3D('',#1009,#1010,#1011);
#1009 = CARTESIAN_POINT('',(0.,0.,0.));
#1010 = DIRECTION('',(0.,0.,1.));
#1011 = DIRECTION('',(1.,0.,-0.));
#1012 = ( GEOMETRIC_REPRESENTATION_CONTEXT(3) 
GLOBAL_UNCERTAINTY_ASSIGNED_CONTEXT((#1016)) 
GLOBAL_UNIT_ASSIGNED_CONTEXT((#1013,#1014,#1015)) REPRESENTATION_CONTEXT
('Context #1','3D Context with UNIT and UNCERTAINTY') );
#1013 = ( LENGTH_UNIT() NAMED_UNIT(*) SI_UNIT(.MILLI.,.METRE.) );
#1014 = ( NAMED_UNIT(*) PLANE_ANGLE_UNIT() SI_UNIT($,.RADIAN.) );
#1015 = ( NAMED_UNIT(*) SI_UNIT($,.STERADIAN.) SOLID_ANGLE_UNIT() );
#1016 = UNCERTAINTY_MEASURE_WITH_UNIT(LENGTH_MEASURE(1.E-07),#1013,
  'distance_accuracy_value','confusion accuracy');
#1017 = CONTEXT_DEPENDENT_SHAPE_REPRESENTATION(#1018,#1020);
#1018 = ( REPRESENTATION_RELATIONSHIP('','',#826,#803) 
REPRESENTATION_RELATIONSHIP_WITH_TRANSFORMATION(#1019) 
SHAPE_REPRESENTATION_RELATIONSHIP() );
#1019 = ITEM_DEFINED_TRANSFORMATION('','',#11,#804);
#1020 = PRODUCT_DEFINITION_SHAPE('Placement','Placement of an item',
  #1021);
#1021 = NEXT_ASSEMBLY_USAGE_OCCURRENCE('7','Cell_3_1','',#798,#821,$);
#1022 = PRODUCT_RELATED_PRODUCT_CATEGORY('part',$,(#823));
ENDSEC;
END-ISO-10303-21;
